# xmcd
#
# Track frame offsets:
#	150
#	22472
#	39272
#	58072
#	70247
#	103900
#	123012
#	141062
#	159522
#	172742
#
# Disc length: 2606 seconds
#
# Revision: 1
# Processed by: cddbd v1.5.1PL0 Copyright (c) Steve Scherf et al.
# Submitted via: CDex 1.50Beta5
#
DISCID=840a2c0a
DTITLE=ストロボ - Ending is the point where all the things get start
DYEAR=1998
DGENRE=Rock
TTITLE0=サイケデリック
TTITLE1=アナザーレベル
TTITLE2=ワード
TTITLE3=ハイライツ
TTITLE4=サカナ
TTITLE5=スペースワーク
TTITLE6=ノウテンキジョウ
TTITLE7=ハイパーバケイション
TTITLE8=バス
TTITLE9=フネ
EXTD=
EXTT0=
EXTT1=
EXTT2=
EXTT3=
EXTT4=
EXTT5=
EXTT6=
EXTT7=
EXTT8=
EXTT9=
PLAYORDER=
